<svg width="90" height="24" viewBox="0 0 90 24" fill="none" xmlns="http://www.w3.org/2000/svg">
<path d="M11 17L13 19C13.197 19.197 13.4308 19.3532 13.6882 19.4598C13.9456 19.5665 14.2214 19.6213 14.5 19.6213C14.7786 19.6213 15.0544 19.5665 15.3118 19.4598C15.5692 19.3532 15.803 19.197 16 19C16.197 18.803 16.3532 18.5692 16.4598 18.3118C16.5665 18.0544 16.6213 17.7786 16.6213 17.5C16.6213 17.2214 16.5665 16.9456 16.4598 16.6882C16.3532 16.4308 16.197 16.197 16 16" stroke="white" stroke-width="2" stroke-linecap="round" stroke-linejoin="round"/>
<path d="M14 14L16.5 16.5C16.8978 16.8978 17.4374 17.1213 18 17.1213C18.5626 17.1213 19.1022 16.8978 19.5 16.5C19.8978 16.1022 20.1213 15.5626 20.1213 15C20.1213 14.4374 19.8978 13.8978 19.5 13.5L15.62 9.62C15.0575 9.0582 14.295 8.74264 13.5 8.74264C12.705 8.74264 11.9425 9.0582 11.38 9.62L10.5 10.5C10.1022 10.8978 9.56261 11.1213 9 11.1213C8.43739 11.1213 7.89782 10.8978 7.5 10.5C7.10217 10.1022 6.87868 9.56261 6.87868 9C6.87868 8.43739 7.10217 7.89782 7.5 7.5L10.31 4.69C11.2222 3.78014 12.4119 3.20055 13.6906 3.04297C14.9694 2.88539 16.2642 3.15883 17.37 3.82L17.84 4.1C18.2658 4.35699 18.772 4.44612 19.26 4.35L21 4" stroke="white" stroke-width="2" stroke-linecap="round" stroke-linejoin="round"/>
<path d="M21 3L22 14H20" stroke="white" stroke-width="2" stroke-linecap="round" stroke-linejoin="round"/>
<path d="M3 3L2 14L8.5 20.5C8.89782 20.8978 9.43739 21.1213 10 21.1213C10.5626 21.1213 11.1022 20.8978 11.5 20.5C11.8978 20.1022 12.1213 19.5626 12.1213 19C12.1213 18.4374 11.8978 17.8978 11.5 17.5" stroke="white" stroke-width="2" stroke-linecap="round" stroke-linejoin="round"/>
<path d="M3 4H11" stroke="white" stroke-width="2" stroke-linecap="round" stroke-linejoin="round"/>
<path d="M80.2321 20.8731V7.10148H82.9707V8.78381H83.0946C83.2163 8.51429 83.3924 8.24042 83.6228 7.96221C83.8575 7.67965 84.1618 7.4449 84.5357 7.25798C84.9139 7.06671 85.3834 6.97107 85.9442 6.97107C86.6745 6.97107 87.3483 7.16234 87.9656 7.54489C88.5828 7.92308 89.0762 8.49473 89.4457 9.25982C89.8152 10.0206 90 10.9747 90 12.1224C90 13.2396 89.8196 14.1829 89.4588 14.9523C89.1023 15.7174 88.6154 16.2978 87.9982 16.6933C87.3852 17.0846 86.6984 17.2802 85.9376 17.2802C85.3986 17.2802 84.94 17.1911 84.5618 17.0129C84.1879 16.8346 83.8815 16.6108 83.6424 16.3412C83.4033 16.0674 83.2207 15.7913 83.0946 15.5131H83.0099V20.8731H80.2321ZM82.9512 12.1093C82.9512 12.7049 83.0338 13.2244 83.199 13.6678C83.3642 14.1112 83.6032 14.4568 83.9162 14.7046C84.2292 14.948 84.6096 15.0697 85.0573 15.0697C85.5094 15.0697 85.892 14.9458 86.205 14.698C86.518 14.4459 86.7549 14.0981 86.9157 13.6547C87.0809 13.207 87.1635 12.6918 87.1635 12.1093C87.1635 11.5312 87.0831 11.0226 86.9223 10.5835C86.7614 10.1445 86.5245 9.80103 86.2115 9.55325C85.8985 9.30546 85.5138 9.18157 85.0573 9.18157C84.6052 9.18157 84.2227 9.30111 83.9097 9.5402C83.6011 9.77929 83.3642 10.1184 83.199 10.5574C83.0338 10.9965 82.9512 11.5138 82.9512 12.1093Z" fill="white"/>
<path d="M75.1378 3.76289H77.9613V12.4354C77.9613 13.4091 77.7287 14.2611 77.2635 14.9914C76.8028 15.7218 76.1572 16.2912 75.3269 16.6999C74.4966 17.1041 73.5294 17.3063 72.4252 17.3063C71.3167 17.3063 70.3473 17.1041 69.517 16.6999C68.6867 16.2912 68.0412 15.7218 67.5804 14.9914C67.1196 14.2611 66.8892 13.4091 66.8892 12.4354V3.76289H69.7126V12.1941C69.7126 12.7027 69.8235 13.1548 70.0452 13.5504C70.2712 13.946 70.5886 14.2568 70.9972 14.4828C71.4058 14.7089 71.8818 14.8219 72.4252 14.8219C72.973 14.8219 73.449 14.7089 73.8532 14.4828C74.2619 14.2568 74.577 13.946 74.7987 13.5504C75.0248 13.1548 75.1378 12.7027 75.1378 12.1941V3.76289Z" fill="white"/>
<path d="M58.1923 11.3269V17.1172H55.4145V7.10148H58.0619V8.86858H58.1793C58.401 8.28607 58.7726 7.82527 59.2943 7.4862C59.8159 7.14278 60.4484 6.97107 61.1918 6.97107C61.8873 6.97107 62.4937 7.12322 63.011 7.42752C63.5284 7.73181 63.9305 8.16652 64.2174 8.73164C64.5043 9.29242 64.6477 9.96187 64.6477 10.74V17.1172H61.8699V11.2356C61.8743 10.6226 61.7178 10.1445 61.4004 9.80103C61.0831 9.45326 60.6462 9.27938 60.0898 9.27938C59.7159 9.27938 59.3856 9.3598 59.0987 9.52064C58.8161 9.68148 58.5944 9.91623 58.4336 10.2249C58.2771 10.5292 58.1966 10.8965 58.1923 11.3269Z" fill="white"/>
<path d="M50.4115 17.1172V7.10148H53.1893V17.1172H50.4115ZM51.807 5.8104C51.394 5.8104 51.0397 5.67346 50.7441 5.3996C50.4528 5.12138 50.3072 4.78883 50.3072 4.40194C50.3072 4.01939 50.4528 3.69119 50.7441 3.41732C51.0397 3.13911 51.394 3 51.807 3C52.2199 3 52.572 3.13911 52.8633 3.41732C53.1589 3.69119 53.3067 4.01939 53.3067 4.40194C53.3067 4.78883 53.1589 5.12138 52.8633 5.3996C52.572 5.67346 52.2199 5.8104 51.807 5.8104Z" fill="white"/>
<path d="M43.6757 17.3128C42.6629 17.3128 41.7869 17.0976 41.0479 16.6673C40.3133 16.2326 39.746 15.6283 39.346 14.8545C38.9461 14.0764 38.7461 13.1744 38.7461 12.1485C38.7461 11.1139 38.9461 10.2097 39.346 9.43587C39.746 8.65774 40.3133 8.0535 41.0479 7.62313C41.7869 7.18843 42.6629 6.97107 43.6757 6.97107C44.6886 6.97107 45.5624 7.18843 46.297 7.62313C47.036 8.0535 47.6055 8.65774 48.0054 9.43587C48.4054 10.2097 48.6053 11.1139 48.6053 12.1485C48.6053 13.1744 48.4054 14.0764 48.0054 14.8545C47.6055 15.6283 47.036 16.2326 46.297 16.6673C45.5624 17.0976 44.6886 17.3128 43.6757 17.3128ZM43.6888 15.161C44.1496 15.161 44.5343 15.0306 44.8429 14.7698C45.1516 14.5046 45.3841 14.1438 45.5406 13.6873C45.7015 13.2309 45.7819 12.7114 45.7819 12.1289C45.7819 11.5464 45.7015 11.0269 45.5406 10.5705C45.3841 10.114 45.1516 9.75321 44.8429 9.48804C44.5343 9.22287 44.1496 9.09028 43.6888 9.09028C43.2236 9.09028 42.8324 9.22287 42.5151 9.48804C42.2021 9.75321 41.9651 10.114 41.8043 10.5705C41.6478 11.0269 41.5696 11.5464 41.5696 12.1289C41.5696 12.7114 41.6478 13.2309 41.8043 13.6873C41.9651 14.1438 42.2021 14.5046 42.5151 14.7698C42.8324 15.0306 43.2236 15.161 43.6888 15.161Z" fill="white"/>
<path d="M34.0773 3.76289H36.8681V13.0744C36.8681 13.9351 36.6747 14.6828 36.2878 15.3175C35.9053 15.9522 35.3727 16.4412 34.6903 16.7846C34.0078 17.128 33.2144 17.2998 32.3102 17.2998C31.506 17.2998 30.7757 17.1585 30.1193 16.8759C29.4672 16.589 28.9499 16.1543 28.5674 15.5718C28.1848 14.9849 27.9957 14.2481 28.0001 13.3613H30.8105C30.8192 13.7134 30.8909 14.0155 31.0257 14.2677C31.1648 14.5154 31.3539 14.7067 31.5929 14.8415C31.8364 14.9719 32.1233 15.0371 32.4537 15.0371C32.8014 15.0371 33.0949 14.9632 33.334 14.8154C33.5774 14.6632 33.7621 14.4415 33.8882 14.1503C34.0143 13.859 34.0773 13.5004 34.0773 13.0744V3.76289Z" fill="white"/>
</svg>
